<svg xmlns="http://www.w3.org/2000/svg" width="103" height="59" fill="none"><rect width="58" height="58" y=".5" fill="#0A0D14" stroke="#1C2331" rx="29" transform="matrix(.86603 .5 -.86603 .5 51.529 .25)"/><path fill="silver" stroke="#0A0D14" stroke-width=".8" d="m49.548 36.47-1.61.93-10.745-6.204 1.61-.93zm3.329-1.452-1.912.725-8.28-7.36 1.927-.733zm3.923-1.015-2.147.462-5.132-8.28 2.155-.47z"/><path fill="silver" stroke="#0A0D14" stroke-width=".8" d="m38.153 27.214-6.958 4.017 16.678 9.63 6.958-4.018 1.594.92-8.585 4.957-19.866-11.47 8.585-4.956zm22.83 6.404-2.267.133-1.256-8.8 2.268-.134 1.256 8.8Zm4.223.18-2.252-.176 2.324-8.747 2.252.177z"/></svg>