<svg xmlns="http://www.w3.org/2000/svg" width="49" height="49" fill="none"><g clip-path="url(#a)"><path fill="url(#b)" fill-rule="evenodd" d="m38.183 10.35-4.656-4.657a1.03 1.03 0 0 0-1.455 0l-4.655 4.656a1.028 1.028 0 0 0 1.455 1.454l2.9-2.899v9.281a1.028 1.028 0 1 0 2.056 0V8.904l2.9 2.899a1.028 1.028 0 1 0 1.455-1.454ZM11.43 31.863l4.677-3.223h15.267a1.89 1.89 0 1 1 0 3.78h-7.303a1.029 1.029 0 1 0 0 2.058h7.303a3.96 3.96 0 0 0 3.29-1.77q.107-.035.203-.091l8.59-4.96a1 1 0 0 0 .128-.074 1.907 1.907 0 0 1 2.474.662q.034.069.077.133c.21.403.259.87.137 1.307-.142.51-.466.95-.912 1.235l-16.11 10.516H19.052c-.188 0-.371.052-.531.15l-1.094.66-5.995-10.383Zm-3.12-1.3-5.646 3.26L11.426 49l5.647-3.26zM32.8 0a12.303 12.303 0 1 1-8.7 3.604A12.27 12.27 0 0 1 32.8 0" clip-rule="evenodd"/></g><defs><linearGradient id="b" x1="46.34" x2="2.664" y1="24.5" y2="24.5" gradientUnits="userSpaceOnUse"><stop stop-color="#8FD7E4"/><stop offset="1" stop-color="#E9CC9C"/></linearGradient><clipPath id="a"><path fill="#fff" d="M0 0h49v49H0z"/></clipPath></defs></svg>